<svg xmlns="http://www.w3.org/2000/svg" width="28" height="28" viewBox="0 0 28 28" fill="none"><path d="M24.5333 6.93335L23.4666 4.53337L21.0667 3.46663L23.4666 2.39998L24.5333 0L25.6 2.39998L28 3.46663L25.6 4.53337L24.5333 6.93335ZM8.53333 6.93335L7.46663 4.53337L5.06665 3.46663L7.46663 2.39998L8.53333 0L9.59998 2.39998L12.2666 3.46663L9.86666 4.53337L8.53333 6.93335ZM24.5333 22.9333L23.4666 20.5334L21.0667 19.4666L23.4666 18.4L24.5333 16L25.6 18.4L28 19.4666L25.6 20.5334L24.5333 22.9333ZM3.73332 27.2L0.533325 24C0.266659 23.7333 0.266667 23.4667 0 23.2C0 22.9334 0.266659 22.4 0.533325 22.4L15.4666 7.46663C16 6.9333 16.8 6.9333 17.6 7.46663L20.5333 10.4C21.0667 10.9333 21.0667 11.7334 20.5333 12.5334L5.59998 27.4666C5.33331 27.7333 5.06663 27.7333 4.79997 27.7333C4.5333 27.7333 3.99998 27.4667 3.73332 27.2ZM4.53333 25.3333L14.9333 14.9333L12.8 12.8L2.39998 23.2L4.53333 25.3333Z" fill="#001B41"></path></svg>