<?xml version="1.0" encoding="UTF-8"?>
<svg id="ICON" xmlns="http://www.w3.org/2000/svg" version="1.1" viewBox="0 0 24 24">
  <defs>
    <style>
      .st0 {
        fill: #fff;
      }
    </style>
  </defs>
  <path class="st0" d="M14,16.3c2.7,0,5.3,2.3,5.3,4.7H4.7c0-2.4,2.6-4.7,5.3-4.7h4ZM14,14.3h-4c-3.7,0-7.3,3-7.3,6.6,0,0,0,0,0,0v.7c0,.7.6,1.3,1.3,1.3h16c.7,0,1.3-.6,1.3-1.3v-.7c0-3.7-3.7-6.7-7.3-6.7ZM12,3.7c1.8,0,3.3,1.5,3.3,3.3s-1.5,3.3-3.3,3.3-3.3-1.5-3.3-3.3,1.5-3.3,3.3-3.3ZM12,1.7c-2.9,0-5.3,2.4-5.3,5.3s2.4,5.3,5.3,5.3,5.3-2.4,5.3-5.3S14.9,1.7,12,1.7Z"/>
</svg>